<?xml version="1.0" encoding="UTF-8" standalone="no"?>
<svg
   viewBox="0,0,256,256"
   width="24px"
   height="24px"
   version="1.1"
   id="svg2"
   sodipodi:docname="slack-icon-dark.svg"
   inkscape:version="1.3 (0e150ed, 2023-07-21)"
   xmlns:inkscape="http://www.inkscape.org/namespaces/inkscape"
   xmlns:sodipodi="http://sodipodi.sourceforge.net/DTD/sodipodi-0.dtd"
   xmlns="http://www.w3.org/2000/svg"
   xmlns:svg="http://www.w3.org/2000/svg">
  <defs
     id="defs2" />
  <sodipodi:namedview
     id="namedview2"
     pagecolor="#ffffff"
     bordercolor="#000000"
     borderopacity="0.25"
     inkscape:showpageshadow="2"
     inkscape:pageopacity="0.0"
     inkscape:pagecheckerboard="0"
     inkscape:deskcolor="#d1d1d1"
     inkscape:zoom="36.041667"
     inkscape:cx="12"
     inkscape:cy="12"
     inkscape:window-width="2560"
     inkscape:window-height="1412"
     inkscape:window-x="0"
     inkscape:window-y="0"
     inkscape:window-maximized="1"
     inkscape:current-layer="svg2" />
  <g
     fill="#fbfafb"
     fill-rule="nonzero"
     stroke="none"
     stroke-width="1"
     stroke-linecap="butt"
     stroke-linejoin="miter"
     stroke-miterlimit="10"
     stroke-dasharray="none"
     stroke-dashoffset="0"
     font-family="none"
     font-weight="none"
     font-size="none"
     text-anchor="none"
     style="mix-blend-mode:normal"
     id="g2"
     transform="matrix(1.2613933,0,0,1.2613933,-26.589109,-26.589109)">
    <g
       transform="scale(10.66667)"
       id="g1">
      <path
         d="M 9,7 C 8.359,7 4.639,7 4,7 2.895,7 2,7.895 2,9 c 0,1.105 0.895,2 2,2 0.639,0 4.359,0 5,0 1.105,0 2,-0.895 2,-2 C 11,7.895 10.105,7 9,7 Z m 2,-3 c 0,0.598 0,2 0,2 C 11,6 9.507,6 9,6 7.895,6 7,5.105 7,4 7,2.895 7.895,2 9,2 c 1.105,0 2,0.895 2,2 z M 7,14 c 0,0.641 0,4.361 0,5 0,1.105 0.895,2 2,2 1.105,0 2,-0.895 2,-2 0,-0.639 0,-4.359 0,-5 0,-1.105 -0.895,-2 -2,-2 -1.105,0 -2,0.895 -2,2 z M 4,12 c 0.598,0 2,0 2,0 0,0 0,1.493 0,2 0,1.105 -0.895,2 -2,2 -1.105,0 -2,-0.895 -2,-2 0,-1.105 0.895,-2 2,-2 z m 10,4 c 0.641,0 4.361,0 5,0 1.105,0 2,-0.895 2,-2 0,-1.105 -0.895,-2 -2,-2 -0.639,0 -4.359,0 -5,0 -1.105,0 -2,0.895 -2,2 0,1.104 0.895,2 2,2 z m -2,3 c 0,-0.598 0,-2 0,-2 0,0 1.493,0 2,0 1.105,0 2,0.895 2,2 0,1.105 -0.895,2 -2,2 -1.105,0 -2,-0.896 -2,-2 z M 16,9 c 0,-0.641 0,-4.361 0,-5 0,-1.105 -0.895,-2 -2,-2 -1.105,0 -2,0.895 -2,2 0,0.639 0,4.359 0,5 0,1.105 0.895,2 2,2 1.104,0 2,-0.896 2,-2 z m 3,2 c -0.598,0 -2,0 -2,0 0,0 0,-1.493 0,-2 0,-1.105 0.895,-2 2,-2 1.105,0 2,0.895 2,2 0,1.105 -0.896,2 -2,2 z"
         id="path1" />
    </g>
  </g>
</svg>
